<?xml version="1.0" encoding="UTF-8" standalone="no"?>
<!-- License Agreement at http://iconmonstr.com/license/ -->

<svg
   xmlns:dc="http://purl.org/dc/elements/1.1/"
   xmlns:cc="http://creativecommons.org/ns#"
   xmlns:rdf="http://www.w3.org/1999/02/22-rdf-syntax-ns#"
   xmlns:svg="http://www.w3.org/2000/svg"
   xmlns="http://www.w3.org/2000/svg"
   xmlns:sodipodi="http://sodipodi.sourceforge.net/DTD/sodipodi-0.dtd"
   xmlns:inkscape="http://www.inkscape.org/namespaces/inkscape"
   version="1.1"
   x="0px"
   y="0px"
   width="512px"
   height="512px"
   viewBox="0 0 512 512"
   enable-background="new 0 0 512 512"
   xml:space="preserve"
   id="svg2"
   inkscape:version="0.48.4 r9939"
   sodipodi:docname="copy_sql.svg"><metadata
     id="metadata9"><rdf:RDF><cc:Work
         rdf:about=""><dc:format>image/svg+xml</dc:format><dc:type
           rdf:resource="http://purl.org/dc/dcmitype/StillImage" /></cc:Work></rdf:RDF></metadata><defs
     id="defs7" /><sodipodi:namedview
     pagecolor="#ffffff"
     bordercolor="#666666"
     borderopacity="1"
     objecttolerance="10"
     gridtolerance="10"
     guidetolerance="10"
     inkscape:pageopacity="0"
     inkscape:pageshadow="2"
     inkscape:window-width="640"
     inkscape:window-height="480"
     id="namedview5"
     showgrid="false"
     inkscape:zoom="0.4609375"
     inkscape:cx="256"
     inkscape:cy="256"
     inkscape:window-x="0"
     inkscape:window-y="0"
     inkscape:window-maximized="0"
     inkscape:current-layer="svg2" /><path
     id="copy-6-icon"
     d="M 360.277,151.999 V 50.001 H 50 v 310.137 h 102 v 101.861 h 310 v -310 H 360.277 z M 90,320.138 V 90.001 h 230.277 v 61.998 H 152 V 320.138 H 90 z m 331.5,101.361 h -230 V 191.832 h 20.569 c 10.639,0 20.745,4.656 27.657,12.744 l 19.023,22.256 H 358 l 19.366,-22.408 c 6.911,-7.996 16.958,-12.592 27.528,-12.592 H 421.5 v 229.667 z m -42.021,-82.918 h -145.99 v -29 h 145.99 v 29 z m 0,-52.332 h -145.99 v -29 h 145.99 v 29 z m -145.991,75.75 h 146.023 v 29 H 233.488 v -29 z"
     style="fill:#6c5367;stroke:#6c5367"
     inkscape:connector-curvature="0" /></svg>