<?xml version="1.0" encoding="UTF-8" standalone="no"?>
<!-- License Agreement at http://iconmonstr.com/license/ -->

<svg
   xmlns:dc="http://purl.org/dc/elements/1.1/"
   xmlns:cc="http://creativecommons.org/ns#"
   xmlns:rdf="http://www.w3.org/1999/02/22-rdf-syntax-ns#"
   xmlns:svg="http://www.w3.org/2000/svg"
   xmlns="http://www.w3.org/2000/svg"
   xmlns:sodipodi="http://sodipodi.sourceforge.net/DTD/sodipodi-0.dtd"
   xmlns:inkscape="http://www.inkscape.org/namespaces/inkscape"
   version="1.1"
   x="0px"
   y="0px"
   width="512px"
   height="512px"
   viewBox="0 0 512 512"
   enable-background="new 0 0 512 512"
   xml:space="preserve"
   id="svg2"
   inkscape:version="0.48.4 r9939"
   sodipodi:docname="function.svg"><metadata
     id="metadata9"><rdf:RDF><cc:Work
         rdf:about=""><dc:format>image/svg+xml</dc:format><dc:type
           rdf:resource="http://purl.org/dc/dcmitype/StillImage" /></cc:Work></rdf:RDF></metadata><defs
     id="defs7" /><sodipodi:namedview
     pagecolor="#ffffff"
     bordercolor="#666666"
     borderopacity="1"
     objecttolerance="10"
     gridtolerance="10"
     guidetolerance="10"
     inkscape:pageopacity="0"
     inkscape:pageshadow="2"
     inkscape:window-width="1440"
     inkscape:window-height="853"
     id="namedview5"
     showgrid="false"
     inkscape:zoom="2.6074563"
     inkscape:cx="307.00246"
     inkscape:cy="101.01697"
     inkscape:window-x="-2"
     inkscape:window-y="-3"
     inkscape:window-maximized="1"
     inkscape:current-layer="svg2" /><path
     id="note-31-icon"
     d="M 218.353,212.218 C 242.533,106.922 362.949,85.416 362.949,85.416 l 0,-35.416 71.812,71.694 -71.812,71.697 0,-35.417 c -0.001,0.001 -93.118,-0.875 -144.596,54.244 z m 146.462,21.703 c 0,39.282 0,77.192 0,89.464 l -0.0674,102.593 c -28.873,0 -144.91462,0 -251.48662,0 l 0,-298.981 116.025,0 c 11.57,-13.304 25.258,-25.368 40.936,-36.022 l -192.983,0 0,371.025 186.426,0 137.172,0.2585 0,-264.3015 c -16.608,16.58 -6.736,6.726 -36.022,35.964 z m -38.414,84.636 -174.728,0 0,-27.018 174.729,0 0,27.018 z m -0.029,-58.912 -174.699,0 0,-27.016 174.699,0 z"
     inkscape:connector-curvature="0"
     sodipodi:nodetypes="ccccccccccccccccccccccccccccccc"
     style="fill:#67536c" /></svg>