<?xml version="1.0" encoding="UTF-8" standalone="no"?>
<!-- The icon can be used freely in both personal and commercial projects with no attribution required, but always appreciated. 
You may NOT sub-license, resell, rent, redistribute or otherwise transfer the icon without express written permission from iconmonstr.com -->

<svg
   xmlns:dc="http://purl.org/dc/elements/1.1/"
   xmlns:cc="http://creativecommons.org/ns#"
   xmlns:rdf="http://www.w3.org/1999/02/22-rdf-syntax-ns#"
   xmlns:svg="http://www.w3.org/2000/svg"
   xmlns="http://www.w3.org/2000/svg"
   xmlns:sodipodi="http://sodipodi.sourceforge.net/DTD/sodipodi-0.dtd"
   xmlns:inkscape="http://www.inkscape.org/namespaces/inkscape"
   version="1.1"
   x="0px"
   y="0px"
   width="512px"
   height="512px"
   viewBox="0 0 512 512"
   enable-background="new 0 0 512 512"
   xml:space="preserve"
   id="svg2"
   inkscape:version="0.48.4 r9939"
   sodipodi:docname="key.svg"><metadata
     id="metadata9"><rdf:RDF><cc:Work
         rdf:about=""><dc:format>image/svg+xml</dc:format><dc:type
           rdf:resource="http://purl.org/dc/dcmitype/StillImage" /></cc:Work></rdf:RDF></metadata><defs
     id="defs7" /><sodipodi:namedview
     pagecolor="#ffffff"
     bordercolor="#666666"
     borderopacity="1"
     objecttolerance="10"
     gridtolerance="10"
     guidetolerance="10"
     inkscape:pageopacity="0"
     inkscape:pageshadow="2"
     inkscape:window-width="640"
     inkscape:window-height="480"
     id="namedview5"
     showgrid="false"
     inkscape:zoom="2.6074563"
     inkscape:cx="327.70313"
     inkscape:cy="251.98415"
     inkscape:window-x="0"
     inkscape:window-y="0"
     inkscape:window-maximized="0"
     inkscape:current-layer="svg2" /><path
     id="key-icon"
     d="M 286.53,325.487 241.216,370.8 h -43.874 l 10e-4,43.873 -45.745,-0.002 v 41.345 H 50 V 385.558 L 195.737,239.821 c 16.437,39.175 48.977,70.885 90.793,85.666 z M 425.646,92.338 c 48.473,48.474 48.471,127.064 -0.001,175.536 -48.475,48.476 -127.062,48.476 -175.537,10e-4 -48.473,-48.472 -48.475,-127.062 0,-175.537 48.472,-48.473 127.065,-48.473 175.538,0 z m -24.914,24.827 c -12.024,-12.021 -31.517,-12.022 -43.538,0 -12.022,12.023 -12.022,31.516 0,43.538 12.021,12.022 31.513,12.021 43.536,-0.001 12.024,-12.023 12.022,-31.515 0.002,-43.537 z"
     style="fill:#67536c"
     inkscape:connector-curvature="0" /></svg>