<?xml version="1.0" encoding="UTF-8" standalone="no"?>
<!-- The icon can be used freely in both personal and commercial projects with no attribution required, but always appreciated. 
You may NOT sub-license, resell, rent, redistribute or otherwise transfer the icon without express written permission from iconmonstr.com -->

<svg
   xmlns:dc="http://purl.org/dc/elements/1.1/"
   xmlns:cc="http://creativecommons.org/ns#"
   xmlns:rdf="http://www.w3.org/1999/02/22-rdf-syntax-ns#"
   xmlns:svg="http://www.w3.org/2000/svg"
   xmlns="http://www.w3.org/2000/svg"
   xmlns:sodipodi="http://sodipodi.sourceforge.net/DTD/sodipodi-0.dtd"
   xmlns:inkscape="http://www.inkscape.org/namespaces/inkscape"
   version="1.1"
   x="0px"
   y="0px"
   width="512px"
   height="512px"
   viewBox="0 0 512 512"
   enable-background="new 0 0 512 512"
   xml:space="preserve"
   id="svg2"
   inkscape:version="0.48.4 r9939"
   sodipodi:docname="new.svg"><metadata
     id="metadata9"><rdf:RDF><cc:Work
         rdf:about=""><dc:format>image/svg+xml</dc:format><dc:type
           rdf:resource="http://purl.org/dc/dcmitype/StillImage" /></cc:Work></rdf:RDF></metadata><defs
     id="defs7" /><sodipodi:namedview
     pagecolor="#ffffff"
     bordercolor="#666666"
     borderopacity="1"
     objecttolerance="10"
     gridtolerance="10"
     guidetolerance="10"
     inkscape:pageopacity="0"
     inkscape:pageshadow="2"
     inkscape:window-width="640"
     inkscape:window-height="480"
     id="namedview5"
     showgrid="false"
     inkscape:zoom="0.4609375"
     inkscape:cx="256"
     inkscape:cy="256"
     inkscape:window-x="0"
     inkscape:window-y="0"
     inkscape:window-maximized="0"
     inkscape:current-layer="svg2" /><path
     id="database-6-icon"
     d="m 384.209,270.801 c -42.963,0 -77.793,34.828 -77.793,77.791 0,42.964 34.83,77.791 77.793,77.791 42.963,0 77.791,-34.827 77.791,-77.791 0,-42.963 -34.828,-77.791 -77.791,-77.791 z m 47.809,91.926 H 398.345 V 396.4 h -26.006 v -33.673 h -33.673 v -26.005 h 33.673 V 303.05 h 26.006 v 33.672 h 33.673 v 26.005 z M 50,109.87 C 50,76.805 124.375,50 216.122,50 c 91.747,0 166.122,26.805 166.122,59.87 0,33.065 -74.375,59.87 -166.122,59.87 C 124.375,169.74 50,142.936 50,109.87 z m 0,97.36 v -46.225 c 10.283,7.392 23.186,13.907 38.484,19.422 34.557,12.454 79.885,19.312 127.638,19.312 47.753,0 93.082,-6.858 127.638,-19.312 15.3,-5.515 28.201,-12.03 38.484,-19.421 v 46.224 c 0,33.065 -74.375,59.87 -166.122,59.87 C 124.375,267.1 50,240.296 50,207.23 z m 0,97.241 v -46.104 c 10.283,7.391 23.186,13.907 38.484,19.421 34.557,12.454 79.885,19.312 127.638,19.312 26.968,0 53.16,-2.188 77.078,-6.336 -13.137,20.584 -18.766,44.931 -16.165,69.423 -18.86,2.68 -39.41,4.152 -60.913,4.152 C 124.375,364.34 50,337.536 50,304.471 z M 334.32,444.194 C 304.202,455.187 262.373,462 216.122,462 124.375,462 50,435.196 50,402.131 v -46.524 c 10.283,7.391 23.186,13.907 38.484,19.422 34.557,12.453 79.885,19.312 127.638,19.312 23.694,0 46.789,-1.69 68.271,-4.913 9.752,23.842 27.849,43.214 49.927,54.766 z"
     style="fill:#67536c"
     inkscape:connector-curvature="0" /></svg>