<?xml version="1.0" encoding="UTF-8" standalone="no"?>
<!-- License Agreement at http://iconmonstr.com/license/ -->

<svg
   xmlns:dc="http://purl.org/dc/elements/1.1/"
   xmlns:cc="http://creativecommons.org/ns#"
   xmlns:rdf="http://www.w3.org/1999/02/22-rdf-syntax-ns#"
   xmlns:svg="http://www.w3.org/2000/svg"
   xmlns="http://www.w3.org/2000/svg"
   xmlns:sodipodi="http://sodipodi.sourceforge.net/DTD/sodipodi-0.dtd"
   xmlns:inkscape="http://www.inkscape.org/namespaces/inkscape"
   version="1.1"
   x="0px"
   y="0px"
   width="512px"
   height="512px"
   viewBox="0 0 512 512"
   enable-background="new 0 0 512 512"
   xml:space="preserve"
   id="svg2"
   inkscape:version="0.48.4 r9939"
   sodipodi:docname="pivot.svg"><metadata
     id="metadata9"><rdf:RDF><cc:Work
         rdf:about=""><dc:format>image/svg+xml</dc:format><dc:type
           rdf:resource="http://purl.org/dc/dcmitype/StillImage" /></cc:Work></rdf:RDF></metadata><defs
     id="defs7" /><sodipodi:namedview
     pagecolor="#ffffff"
     bordercolor="#666666"
     borderopacity="1"
     objecttolerance="10"
     gridtolerance="10"
     guidetolerance="10"
     inkscape:pageopacity="0"
     inkscape:pageshadow="2"
     inkscape:window-width="1440"
     inkscape:window-height="853"
     id="namedview5"
     showgrid="false"
     inkscape:zoom="0.921875"
     inkscape:cx="467.0066"
     inkscape:cy="147.649"
     inkscape:window-x="-2"
     inkscape:window-y="-3"
     inkscape:window-maximized="1"
     inkscape:current-layer="svg2" /><path
     id="note-29-icon"
     d="m 344.319,319.785 -177.081,0 0,-26.612 177.081,0 z m 0,-57.954 -177.081,0 0,-26.612 177.081,0 z M 340.371,50 c -30.461,0 -55.156,24.695 -55.156,55.157 0,12.078 3.894,23.241 10.479,32.326 l -60.596,60.595 39.668,-0.007 42.73,-42.729 c 6.971,3.183 14.712,4.97 22.875,4.97 30.462,0 55.155,-24.694 55.155,-55.154 C 395.526,74.695 370.833,50 340.371,50 z m 0,43.264 c -9.488,0 -17.181,-5.416 -17.181,-12.096 0,-6.681 7.692,-12.096 17.181,-12.096 9.489,0 17.18,5.415 17.18,12.096 0,6.68 -7.692,12.096 -17.18,12.096 z m 42.961,85.413 c 0,51.5 0,127.424 0,145.747 l -0.0506,101.28263 c -28.657,0 -148.84136,0.54237 -254.61236,0.54237 l 0,-296.737 130.056,0 c -3.394,-11.384 -4.418,-23.412 -2.76,-35.752 l -163.049,0 0,368.24 326.16259,0 0.005,-134.489 0,-189.798 c -7.153,17.228 -19.805,31.608 -35.752,40.964 z"
     inkscape:connector-curvature="0"
     sodipodi:nodetypes="ccccccccccssccccssssssssccccccccccccc"
     style="fill:#67536c" /></svg>