<?xml version="1.0" encoding="UTF-8" standalone="no"?>
<!-- License Agreement at http://iconmonstr.com/license/ -->

<svg
   xmlns:dc="http://purl.org/dc/elements/1.1/"
   xmlns:cc="http://creativecommons.org/ns#"
   xmlns:rdf="http://www.w3.org/1999/02/22-rdf-syntax-ns#"
   xmlns:svg="http://www.w3.org/2000/svg"
   xmlns="http://www.w3.org/2000/svg"
   xmlns:sodipodi="http://sodipodi.sourceforge.net/DTD/sodipodi-0.dtd"
   xmlns:inkscape="http://www.inkscape.org/namespaces/inkscape"
   version="1.1"
   x="0px"
   y="0px"
   width="512px"
   height="512px"
   viewBox="0 0 512 512"
   enable-background="new 0 0 512 512"
   xml:space="preserve"
   id="svg2"
   inkscape:version="0.48.4 r9939"
   sodipodi:docname="properties.svg"><metadata
     id="metadata9"><rdf:RDF><cc:Work
         rdf:about=""><dc:format>image/svg+xml</dc:format><dc:type
           rdf:resource="http://purl.org/dc/dcmitype/StillImage" /></cc:Work></rdf:RDF></metadata><defs
     id="defs7" /><sodipodi:namedview
     pagecolor="#ffffff"
     bordercolor="#666666"
     borderopacity="1"
     objecttolerance="10"
     gridtolerance="10"
     guidetolerance="10"
     inkscape:pageopacity="0"
     inkscape:pageshadow="2"
     inkscape:window-width="715"
     inkscape:window-height="480"
     id="namedview5"
     showgrid="false"
     inkscape:zoom="0.4609375"
     inkscape:cx="256"
     inkscape:cy="256"
     inkscape:window-x="0"
     inkscape:window-y="0"
     inkscape:window-maximized="0"
     inkscape:current-layer="svg2" /><path
     id="tools-5-icon"
     d="M 425.908,380.059 236.054,190.203 c -9.129,-9.127 -13.83,-21.822 -12.834,-34.693 1.885,-24.382 -6.492,-49.408 -25.142,-68.056 C 173.922,63.298 138.881,56.251 108.325,66.818 l 55.194,55.194 c 1.265,21.521 -32.008,54.817 -53.56,53.559 L 54.767,120.377 c -10.514,30.4 -3.639,65.48 20.635,89.754 16.935,16.936 39.13,25.399 61.326,25.399 6.129,0 25.101,-3.749 41.424,12.574 l 189.856,189.855 c 15.985,15.987 41.908,15.99 57.899,0 15.989,-15.988 15.989,-41.912 0.001,-57.9 z m -30.946,43.326 c -9.318,0 -16.875,-7.555 -16.875,-16.874 0,-9.318 7.557,-16.873 16.875,-16.873 9.317,0 16.874,7.555 16.874,16.873 0,9.319 -7.557,16.874 -16.874,16.874 z M 273.336,187.93 390.714,70.551 462,141.838 344.622,259.216 327.296,241.891 423.453,145.734 c 2.852,-2.851 2.852,-7.473 0,-10.324 -2.852,-2.852 -7.474,-2.852 -10.324,-0.001 l -96.158,96.157 -16.069,-16.07 96.281,-96.279 c 2.851,-2.851 2.851,-7.473 -0.002,-10.325 -2.852,-2.851 -7.474,-2.851 -10.323,0 l -96.28,96.28 -17.242,-17.242 z m -26.17,168.741 -75.9,75.9 -89.301,16.481 18.016,-87.768 75.899,-75.9 17.241,17.241 -68.284,68.284 c -2.85,2.85 -2.851,7.473 0,10.325 2.852,2.851 7.473,2.851 10.324,-10e-4 l 68.284,-68.283 16.071,16.07 -68.406,68.405 c -2.852,2.852 -2.852,7.474 0,10.324 2.851,2.852 7.473,2.852 10.324,0 l 68.406,-68.405 17.326,17.327 z"
     style="fill:#67536c"
     inkscape:connector-curvature="0" /></svg>