<?xml version="1.0" encoding="UTF-8" standalone="no"?>
<!-- The icon can be used freely in both personal and commercial projects with no attribution required, but always appreciated. 
You may NOT sub-license, resell, rent, redistribute or otherwise transfer the icon without express written permission from iconmonstr.com -->

<svg
   xmlns:dc="http://purl.org/dc/elements/1.1/"
   xmlns:cc="http://creativecommons.org/ns#"
   xmlns:rdf="http://www.w3.org/1999/02/22-rdf-syntax-ns#"
   xmlns:svg="http://www.w3.org/2000/svg"
   xmlns="http://www.w3.org/2000/svg"
   xmlns:sodipodi="http://sodipodi.sourceforge.net/DTD/sodipodi-0.dtd"
   xmlns:inkscape="http://www.inkscape.org/namespaces/inkscape"
   version="1.1"
   x="0px"
   y="0px"
   width="512px"
   height="512px"
   viewBox="0 0 512 512"
   enable-background="new 0 0 512 512"
   xml:space="preserve"
   id="svg2"
   inkscape:version="0.48.4 r9939"
   sodipodi:docname="refresh.svg"><metadata
     id="metadata9"><rdf:RDF><cc:Work
         rdf:about=""><dc:format>image/svg+xml</dc:format><dc:type
           rdf:resource="http://purl.org/dc/dcmitype/StillImage" /></cc:Work></rdf:RDF></metadata><defs
     id="defs7" /><sodipodi:namedview
     pagecolor="#ffffff"
     bordercolor="#666666"
     borderopacity="1"
     objecttolerance="10"
     gridtolerance="10"
     guidetolerance="10"
     inkscape:pageopacity="0"
     inkscape:pageshadow="2"
     inkscape:window-width="640"
     inkscape:window-height="480"
     id="namedview5"
     showgrid="false"
     inkscape:zoom="0.4609375"
     inkscape:cx="256"
     inkscape:cy="256"
     inkscape:window-x="0"
     inkscape:window-y="0"
     inkscape:window-maximized="0"
     inkscape:current-layer="svg2" /><path
     id="refresh-3-icon"
     d="m 373.223,142.573 -37.252,37.253 c -20.225,-20.224 -48.162,-32.731 -79.021,-32.731 -61.719,0 -111.752,50.056 -111.752,111.776 0,0.016 0,-0.016 0,0 H 188.61 L 119.268,328.186 50,258.871 h 42.514 c 0,-0.008 0,0.006 0,0 0,-90.816 73.621,-164.46 164.436,-164.46 45.407,0 86.517,18.405 116.273,48.162 z M 462,253.129 392.732,183.813 323.39,253.129 h 43.412 c 0,0.016 0,-0.017 0,0 0,61.72 -50.033,111.776 -111.752,111.776 -30.859,0 -58.797,-12.508 -79.021,-32.731 l -37.252,37.253 c 29.758,29.757 70.867,48.162 116.273,48.162 90.814,0 164.436,-73.644 164.436,-164.459 0,-0.007 0,0.008 0,0 H 462 z"
     style="fill:#67536c"
     inkscape:connector-curvature="0" /></svg>