<?xml version="1.0" encoding="UTF-8" standalone="no"?>
<!-- The icon can be used freely in both personal and commercial projects with no attribution required, but always appreciated. 
You may NOT sub-license, resell, rent, redistribute or otherwise transfer the icon without express written permission from iconmonstr.com -->

<svg
   xmlns:dc="http://purl.org/dc/elements/1.1/"
   xmlns:cc="http://creativecommons.org/ns#"
   xmlns:rdf="http://www.w3.org/1999/02/22-rdf-syntax-ns#"
   xmlns:svg="http://www.w3.org/2000/svg"
   xmlns="http://www.w3.org/2000/svg"
   xmlns:sodipodi="http://sodipodi.sourceforge.net/DTD/sodipodi-0.dtd"
   xmlns:inkscape="http://www.inkscape.org/namespaces/inkscape"
   version="1.1"
   x="0px"
   y="0px"
   width="512px"
   height="512px"
   viewBox="0 0 512 512"
   enable-background="new 0 0 512 512"
   xml:space="preserve"
   id="svg2"
   inkscape:version="0.48.4 r9939"
   sodipodi:docname="scatter.svg"><metadata
   id="metadata9"><rdf:RDF><cc:Work
       rdf:about=""><dc:format>image/svg+xml</dc:format><dc:type
         rdf:resource="http://purl.org/dc/dcmitype/StillImage" /></cc:Work></rdf:RDF></metadata><defs
   id="defs7" /><sodipodi:namedview
   pagecolor="#ffffff"
   bordercolor="#666666"
   borderopacity="1"
   objecttolerance="10"
   gridtolerance="10"
   guidetolerance="10"
   inkscape:pageopacity="0"
   inkscape:pageshadow="2"
   inkscape:window-width="678"
   inkscape:window-height="480"
   id="namedview5"
   showgrid="false"
   inkscape:zoom="0.4609375"
   inkscape:cx="256"
   inkscape:cy="256"
   inkscape:window-x="0"
   inkscape:window-y="0"
   inkscape:window-maximized="0"
   inkscape:current-layer="svg2" />

<path
   style="fill:#6c5367"
   d="m 462,397.716 0,40 -412,0 0,-363.432 40,0 0,323.432 z"
   id="path2989" /><path
   style="fill:#6c5367"
   d="m 145.92987,205.85403 -32.2838,34.15729 33.955,34.055 31.71517,-31.52017 c -25.45872,-28.40289 -14.95828,-15.67384 -33.38637,-36.69212 z"
   id="path6"
   inkscape:connector-curvature="0" />

<path
   inkscape:connector-curvature="0"
   style="fill:#6c5367"
   d="m 229.41482,165.48708 -32.2838,34.15729 33.955,34.055 31.71517,-31.52017 c -25.45872,-28.40289 -14.95828,-15.67384 -33.38637,-36.69212 z"
   id="path6-1" /><path
   inkscape:connector-curvature="0"
   style="fill:#6c5367"
   d="m 301.00804,228.40233 -32.2838,34.15729 33.955,34.055 31.71517,-31.52017 c -25.45872,-28.40289 -14.95828,-15.67384 -33.38637,-36.69212 z"
   id="path6-1-7" /><path
   inkscape:connector-curvature="0"
   style="fill:#6c5367"
   d="m 368.26227,163.31758 -32.2838,34.15729 33.955,34.055 31.71517,-31.52017 c -25.45872,-28.40289 -14.95828,-15.67384 -33.38637,-36.69212 z"
   id="path6-1-4" /></svg>