<?xml version="1.0" encoding="UTF-8" standalone="no"?>
<!-- The icon can be used freely in both personal and commercial projects with no attribution required, but always appreciated. 
You may NOT sub-license, resell, rent, redistribute or otherwise transfer the icon without express written permission from iconmonstr.com -->

<svg
   xmlns:dc="http://purl.org/dc/elements/1.1/"
   xmlns:cc="http://creativecommons.org/ns#"
   xmlns:rdf="http://www.w3.org/1999/02/22-rdf-syntax-ns#"
   xmlns:svg="http://www.w3.org/2000/svg"
   xmlns="http://www.w3.org/2000/svg"
   xmlns:sodipodi="http://sodipodi.sourceforge.net/DTD/sodipodi-0.dtd"
   xmlns:inkscape="http://www.inkscape.org/namespaces/inkscape"
   version="1.1"
   x="0px"
   y="0px"
   width="512px"
   height="512px"
   viewBox="0 0 512 512"
   enable-background="new 0 0 512 512"
   xml:space="preserve"
   id="svg2"
   inkscape:version="0.48.4 r9939"
   sodipodi:docname="search.svg"><metadata
     id="metadata9"><rdf:RDF><cc:Work
         rdf:about=""><dc:format>image/svg+xml</dc:format><dc:type
           rdf:resource="http://purl.org/dc/dcmitype/StillImage" /></cc:Work></rdf:RDF></metadata><defs
     id="defs7"><linearGradient
       id="linearGradient3766"><stop
         style="stop-color:#333333;stop-opacity:0.80136985;"
         offset="0"
         id="stop3768" /><stop
         id="stop3776"
         offset="0.54233211"
         style="stop-color:#333333;stop-opacity:0.49803922;" /><stop
         style="stop-color:#333333;stop-opacity:0;"
         offset="1"
         id="stop3770" /></linearGradient></defs><sodipodi:namedview
     pagecolor="#ffffff"
     bordercolor="#666666"
     borderopacity="1"
     objecttolerance="10"
     gridtolerance="10"
     guidetolerance="10"
     inkscape:pageopacity="0"
     inkscape:pageshadow="2"
     inkscape:window-width="894"
     inkscape:window-height="796"
     id="namedview5"
     showgrid="false"
     inkscape:zoom="1.84375"
     inkscape:cx="250.71259"
     inkscape:cy="164.20318"
     inkscape:window-x="0"
     inkscape:window-y="0"
     inkscape:window-maximized="0"
     inkscape:current-layer="svg2" /><path
     transform="matrix(0.99488303,0,0,0.99488303,-31.956194,-17.781208)"
     d="m 336.27119,223.18645 a 98.440681,98.440681 0 1 1 -196.88137,0 98.440681,98.440681 0 1 1 196.88137,0 z"
     sodipodi:ry="98.440681"
     sodipodi:rx="98.440681"
     sodipodi:cy="223.18645"
     sodipodi:cx="237.83051"
     id="path3778"
     style="fill:none;stroke:#beb7c8;stroke-width:5.80986976999999971;stroke-linecap:butt;stroke-linejoin:miter;stroke-opacity:1"
     sodipodi:type="arc" /><path
     sodipodi:type="arc"
     style="fill:none;stroke:#8a6f91;stroke-width:5.80986976999999971;stroke-linecap:butt;stroke-linejoin:miter;stroke-opacity:1"
     id="path2986"
     sodipodi:cx="237.83051"
     sodipodi:cy="223.18645"
     sodipodi:rx="98.440681"
     sodipodi:ry="98.440681"
     d="m 336.27119,223.18645 a 98.440681,98.440681 0 1 1 -196.88137,0 98.440681,98.440681 0 1 1 196.88137,0 z"
     transform="matrix(1.0327254,0,0,1.0327254,-41.228754,-26.664448)" /><path
     sodipodi:type="arc"
     style="fill:none;stroke:#c4b7c8;stroke-width:5.80986976999999971;stroke-linecap:butt;stroke-linejoin:miter;stroke-opacity:1"
     id="path3784"
     sodipodi:cx="237.83051"
     sodipodi:cy="223.18645"
     sodipodi:rx="98.440681"
     sodipodi:ry="98.440681"
     d="m 336.27119,223.18645 a 98.440681,98.440681 0 1 1 -196.88137,0 98.440681,98.440681 0 1 1 196.88137,0 z"
     transform="matrix(1.5996269,0,0,1.5996269,-175.07086,-154.03997)" /><path
     transform="matrix(1.5522087,0,0,1.5522087,-163.73287,-143.86232)"
     d="m 336.27119,223.18645 a 98.440681,98.440681 0 1 1 -196.88137,0 98.440681,98.440681 0 1 1 196.88137,0 z"
     sodipodi:ry="98.440681"
     sodipodi:rx="98.440681"
     sodipodi:cy="223.18645"
     sodipodi:cx="237.83051"
     id="path3786"
     style="fill:none;stroke:#8a6f91;stroke-width:5.80986976999999971;stroke-linecap:butt;stroke-linejoin:miter;stroke-opacity:1"
     sodipodi:type="arc" /><path
     id="magnifier-5-icon"
     d="M 460.488,387.166 343.398,270.076 C 392.051,169.175 318.504,50 204.959,50 120.273,50 51.375,118.898 51.375,203.585 c 0,111.723 115.703,185.375 216.308,140.187 l 118.1,118.097 c 33.59,2.803 77.604,-39.947 74.705,-74.703 z m -255.529,-81.04 c -56.537,0 -102.535,-45.999 -102.535,-102.541 0,-56.539 45.998,-102.538 102.535,-102.538 56.541,0 102.541,45.999 102.541,102.538 0,56.542 -46,102.541 -102.541,102.541 z"
     style="fill:#67536c"
     inkscape:connector-curvature="0" /></svg>