<?xml version="1.0" encoding="UTF-8" standalone="no"?>
<!-- License Agreement at http://iconmonstr.com/license/ -->

<svg
   xmlns:dc="http://purl.org/dc/elements/1.1/"
   xmlns:cc="http://creativecommons.org/ns#"
   xmlns:rdf="http://www.w3.org/1999/02/22-rdf-syntax-ns#"
   xmlns:svg="http://www.w3.org/2000/svg"
   xmlns="http://www.w3.org/2000/svg"
   xmlns:sodipodi="http://sodipodi.sourceforge.net/DTD/sodipodi-0.dtd"
   xmlns:inkscape="http://www.inkscape.org/namespaces/inkscape"
   version="1.1"
   x="0px"
   y="0px"
   width="512px"
   height="512px"
   viewBox="0 0 512 512"
   enable-background="new 0 0 512 512"
   xml:space="preserve"
   id="svg2"
   inkscape:version="0.48.4 r9939"
   sodipodi:docname="table.svg"><metadata
     id="metadata9"><rdf:RDF><cc:Work
         rdf:about=""><dc:format>image/svg+xml</dc:format><dc:type
           rdf:resource="http://purl.org/dc/dcmitype/StillImage" /></cc:Work></rdf:RDF></metadata><defs
     id="defs7" /><sodipodi:namedview
     pagecolor="#ffffff"
     bordercolor="#666666"
     borderopacity="1"
     objecttolerance="10"
     gridtolerance="10"
     guidetolerance="10"
     inkscape:pageopacity="0"
     inkscape:pageshadow="2"
     inkscape:window-width="1440"
     inkscape:window-height="853"
     id="namedview5"
     showgrid="false"
     inkscape:zoom="1.3037281"
     inkscape:cx="356.46372"
     inkscape:cy="264.65063"
     inkscape:window-x="-2"
     inkscape:window-y="-3"
     inkscape:window-maximized="1"
     inkscape:current-layer="svg2" /><path
     style="fill:#67536c"
     id="path3010"
     d="m 353.012,302.715 -194.024,0 0,-30 194.023,0 0,30 z m -0.033,-65.417 -193.99,0 0,-30 193.99,0 z m 0,-65.333 -193.99,0 0,-30 193.99,0 z M 116.333,422 l 0,-332 279.334,0 c 0,0 0,186.325 0,218.075 L 395.49257,422 c -32.062,0 -160.81757,0 -279.15957,0 z m 319.334,40.63312 0,-412.63312 -359.334,0 0,412 323.0838,0.54237 c 0.91176,0.002 36.2502,0.0908 36.2502,0.0908 z"
     inkscape:connector-curvature="0"
     sodipodi:nodetypes="cccccccccccccccccccccccccccc" /></svg>